HIERARCHY
ROOT Hips
{
	OFFSET 0.000000 97.167313 0.000000
	CHANNELS 6 Xposition Yposition Zposition Xrotation Yrotation Zrotation
	JOINT Spine
	{
		OFFSET 0.000000 13.784798 0.064400
		CHANNELS 3 Xrotation Yrotation Zrotation
		JOINT Spine1
		{
			OFFSET 0.000000 12.037903 0.404700
			CHANNELS 3 Xrotation Yrotation Zrotation
			JOINT Spine2
			{
				OFFSET 0.000000 17.795601 0.420200
				CHANNELS 3 Xrotation Yrotation Zrotation
				JOINT Neck
				{
					OFFSET 0.000000 39.131302 11.954600
					CHANNELS 3 Xrotation Yrotation Zrotation
					JOINT Head
					{
						OFFSET 0.000000 14.456192 15.627699
						CHANNELS 3 Xrotation Yrotation Zrotation
						JOINT HeadTop_End
						{
							OFFSET 0.000000 15.703506 7.603401
							CHANNELS 3 Xrotation Yrotation Zrotation
							End Site
							{
								OFFSET 0.000000 17.447403 0.000000
							}
						}
					}
				}
				JOINT LeftShoulder
				{
					OFFSET 17.399500 24.608795 1.168800
					CHANNELS 3 Xrotation Yrotation Zrotation
					JOINT LeftArm
					{
						OFFSET 18.980635 5.765305 1.818600
						CHANNELS 3 Xrotation Yrotation Zrotation
						JOINT LeftForeArm
						{
							OFFSET 49.290169 0.000000 0.000000
							CHANNELS 3 Xrotation Yrotation Zrotation
							JOINT LeftHand
							{
								OFFSET 31.562012 0.000000 0.000000
								CHANNELS 3 Xrotation Yrotation Zrotation
								JOINT LeftHandThumb1
								{
									OFFSET 6.133995 -4.388519 7.076070
									CHANNELS 3 Xrotation Yrotation Zrotation
									JOINT LeftHandThumb2
									{
										OFFSET 6.037666 -3.485840 3.485847
										CHANNELS 3 Xrotation Yrotation Zrotation
										JOINT LeftHandThumb3
										{
											OFFSET 6.496506 -3.750763 3.750761
											CHANNELS 3 Xrotation Yrotation Zrotation
											JOINT LeftHandThumb4
											{
												OFFSET 5.616882 -3.242905 3.242910
												CHANNELS 3 Xrotation Yrotation Zrotation
												End Site
												{
													OFFSET -1.254608 7.132141 0.375429
												}
											}
										}
									}
								}
								JOINT LeftHandPinky1
								{
									OFFSET 18.920792 -0.453171 -11.426712
									CHANNELS 3 Xrotation Yrotation Zrotation
									JOINT LeftHandPinky2
									{
										OFFSET 4.919586 0.000000 0.000000
										CHANNELS 3 Xrotation Yrotation Zrotation
										JOINT LeftHandPinky3
										{
											OFFSET 5.233047 0.000000 0.000000
											CHANNELS 3 Xrotation Yrotation Zrotation
											JOINT LeftHandPinky4
											{
												OFFSET 5.571716 0.000000 0.000000
												CHANNELS 3 Xrotation Yrotation Zrotation
												End Site
												{
													OFFSET -3.459808 4.342407 -0.466164
												}
											}
										}
									}
								}
								JOINT LeftHandRing1
								{
									OFFSET 22.726120 -0.094986 -6.500475
									CHANNELS 3 Xrotation Yrotation Zrotation
									JOINT LeftHandRing2
									{
										OFFSET 6.408615 0.000000 0.000000
										CHANNELS 3 Xrotation Yrotation Zrotation
										JOINT LeftHandRing3
										{
											OFFSET 6.150223 0.000000 0.000000
											CHANNELS 3 Xrotation Yrotation Zrotation
											JOINT LeftHandRing4
											{
												OFFSET 6.145386 0.000000 0.000000
												CHANNELS 3 Xrotation Yrotation Zrotation
												End Site
												{
													OFFSET -3.671402 4.923981 -0.202372
												}
											}
										}
									}
								}
								JOINT LeftHandMiddle1
								{
									OFFSET 23.373947 0.000000 0.000001
									CHANNELS 3 Xrotation Yrotation Zrotation
									JOINT LeftHandMiddle2
									{
										OFFSET 6.996567 0.000000 0.000000
										CHANNELS 3 Xrotation Yrotation Zrotation
										JOINT LeftHandMiddle3
										{
											OFFSET 7.015945 0.000000 0.000000
											CHANNELS 3 Xrotation Yrotation Zrotation
											JOINT LeftHandMiddle4
											{
												OFFSET 7.721573 0.000000 0.000000
												CHANNELS 3 Xrotation Yrotation Zrotation
												End Site
												{
													OFFSET -4.651108 6.158463 0.251582
												}
											}
										}
									}
								}
								JOINT LeftHandIndex1
								{
									OFFSET 21.310577 -0.490082 6.209344
									CHANNELS 3 Xrotation Yrotation Zrotation
									JOINT LeftHandIndex2
									{
										OFFSET 7.536453 0.000000 0.000000
										CHANNELS 3 Xrotation Yrotation Zrotation
										JOINT LeftHandIndex3
										{
											OFFSET 7.512344 0.000000 0.000000
											CHANNELS 3 Xrotation Yrotation Zrotation
											JOINT LeftHandIndex4
											{
												OFFSET 10.212402 0.000000 0.000001
												CHANNELS 3 Xrotation Yrotation Zrotation
												End Site
												{
													OFFSET -5.180801 8.690506 1.388433
												}
											}
										}
									}
								}
							}
						}
					}
				}
				JOINT RightShoulder
				{
					OFFSET -17.399500 24.608795 1.168800
					CHANNELS 3 Xrotation Yrotation Zrotation
					JOINT RightArm
					{
						OFFSET -18.980635 5.765305 1.818600
						CHANNELS 3 Xrotation Yrotation Zrotation
						JOINT RightForeArm
						{
							OFFSET -49.290169 0.000000 0.000000
							CHANNELS 3 Xrotation Yrotation Zrotation
							JOINT RightHand
							{
								OFFSET -31.562012 0.000000 0.000000
								CHANNELS 3 Xrotation Yrotation Zrotation
								JOINT RightHandThumb1
								{
									OFFSET -6.133995 -4.388519 7.076070
									CHANNELS 3 Xrotation Yrotation Zrotation
									JOINT RightHandThumb2
									{
										OFFSET -6.037666 -3.485840 3.485847
										CHANNELS 3 Xrotation Yrotation Zrotation
										JOINT RightHandThumb3
										{
											OFFSET -6.496506 -3.750763 3.750761
											CHANNELS 3 Xrotation Yrotation Zrotation
											JOINT RightHandThumb4
											{
												OFFSET -5.616882 -3.242905 3.242910
												CHANNELS 3 Xrotation Yrotation Zrotation
												End Site
												{
													OFFSET 1.254608 7.132141 0.375429
												}
											}
										}
									}
								}
								JOINT RightHandIndex1
								{
									OFFSET -21.310577 -0.490082 6.209344
									CHANNELS 3 Xrotation Yrotation Zrotation
									JOINT RightHandIndex2
									{
										OFFSET -7.536453 0.000000 0.000000
										CHANNELS 3 Xrotation Yrotation Zrotation
										JOINT RightHandIndex3
										{
											OFFSET -7.512344 0.000000 0.000000
											CHANNELS 3 Xrotation Yrotation Zrotation
											JOINT RightHandIndex4
											{
												OFFSET -10.212402 0.000000 0.000001
												CHANNELS 3 Xrotation Yrotation Zrotation
												End Site
												{
													OFFSET 5.180801 8.690506 1.388433
												}
											}
										}
									}
								}
								JOINT RightHandMiddle1
								{
									OFFSET -23.373947 0.000000 0.000001
									CHANNELS 3 Xrotation Yrotation Zrotation
									JOINT RightHandMiddle2
									{
										OFFSET -6.996567 0.000000 0.000000
										CHANNELS 3 Xrotation Yrotation Zrotation
										JOINT RightHandMiddle3
										{
											OFFSET -7.015945 0.000000 0.000000
											CHANNELS 3 Xrotation Yrotation Zrotation
											JOINT RightHandMiddle4
											{
												OFFSET -7.721573 0.000000 0.000000
												CHANNELS 3 Xrotation Yrotation Zrotation
												End Site
												{
													OFFSET 4.651108 6.158463 0.251582
												}
											}
										}
									}
								}
								JOINT RightHandRing1
								{
									OFFSET -22.726120 -0.094986 -6.500475
									CHANNELS 3 Xrotation Yrotation Zrotation
									JOINT RightHandRing2
									{
										OFFSET -6.408615 0.000000 0.000000
										CHANNELS 3 Xrotation Yrotation Zrotation
										JOINT RightHandRing3
										{
											OFFSET -6.150223 0.000000 0.000000
											CHANNELS 3 Xrotation Yrotation Zrotation
											JOINT RightHandRing4
											{
												OFFSET -6.145386 0.000000 0.000000
												CHANNELS 3 Xrotation Yrotation Zrotation
												End Site
												{
													OFFSET 3.671402 4.923981 -0.202372
												}
											}
										}
									}
								}
								JOINT RightHandPinky1
								{
									OFFSET -18.920792 -0.453171 -11.426712
									CHANNELS 3 Xrotation Yrotation Zrotation
									JOINT RightHandPinky2
									{
										OFFSET -4.919586 0.000000 0.000000
										CHANNELS 3 Xrotation Yrotation Zrotation
										JOINT RightHandPinky3
										{
											OFFSET -5.233047 0.000000 0.000000
											CHANNELS 3 Xrotation Yrotation Zrotation
											JOINT RightHandPinky4
											{
												OFFSET -5.571716 0.000000 0.000000
												CHANNELS 3 Xrotation Yrotation Zrotation
												End Site
												{
													OFFSET 3.459808 4.342407 -0.466164
												}
											}
										}
									}
								}
							}
						}
					}
				}
			}
		}
	}
	JOINT LeftUpLeg
	{
		OFFSET 19.899099 -7.885101 -3.429500
		CHANNELS 3 Xrotation Yrotation Zrotation
		JOINT LeftLeg
		{
			OFFSET 1.745560 -36.997807 10.304700
			CHANNELS 3 Xrotation Yrotation Zrotation
			JOINT LeftFoot
			{
				OFFSET -1.745558 -29.803308 -13.615400
				CHANNELS 3 Xrotation Yrotation Zrotation
				JOINT LeftToeBase
				{
					OFFSET 1.181900 -18.539904 15.226099
					CHANNELS 3 Xrotation Yrotation Zrotation
					JOINT LeftToe_End
					{
						OFFSET -0.863701 1.402801 16.534700
						CHANNELS 3 Xrotation Yrotation Zrotation
						End Site
						{
							OFFSET 0.000000 16.616566 0.000000
						}
					}
				}
			}
		}
	}
	JOINT RightUpLeg
	{
		OFFSET -19.899099 -7.885101 -3.429500
		CHANNELS 3 Xrotation Yrotation Zrotation
		JOINT RightLeg
		{
			OFFSET -1.745560 -36.997807 10.304700
			CHANNELS 3 Xrotation Yrotation Zrotation
			JOINT RightFoot
			{
				OFFSET 1.745558 -29.803308 -13.615400
				CHANNELS 3 Xrotation Yrotation Zrotation
				JOINT RightToeBase
				{
					OFFSET -1.181900 -18.539904 15.226099
					CHANNELS 3 Xrotation Yrotation Zrotation
					JOINT RightToe_End
					{
						OFFSET 0.863701 1.402801 16.534700
						CHANNELS 3 Xrotation Yrotation Zrotation
						End Site
						{
							OFFSET 0.000000 16.616566 0.000000
						}
					}
				}
			}
		}
	}
}
MOTION
Frames: 4
Frame Time: 0.033333
15.161680 91.493050 3.032998 -1.989133 -4.471024 -2.501645 8.499134 0.960232 -0.247367 0.136554 -4.114361 2.262063 -5.220814 2.314671 -0.362943 9.314944 -11.748355 3.238726 -4.362005 -13.013682 6.375991 -0.000000 0.000004 -0.000001 4.333269 -11.040673 -1.266040 4.982223 -8.764310 -74.862910 -5.698883 -12.928756 -0.717788 -7.758576 3.559777 3.211007 -3.847823 8.298204 12.298314 7.458077 11.638946 -1.288941 1.232367 9.102778 5.240946 -0.000000 -0.000001 -0.000002 -8.271929 8.996957 -10.598149 0.025017 0.254686 -24.549628 0.009557 0.140860 -5.276516 -0.000000 0.000001 -0.000004 -6.447985 5.383991 -0.086879 -0.079294 0.332931 -24.536568 0.009163 0.710144 -7.134953 0.000000 0.000001 0.000003 -3.023732 -0.900345 -4.648349 0.047867 0.666343 -19.949439 0.030060 0.056966 -4.678827 -0.000000 -0.000000 0.000006 1.210110 -5.880218 0.594944 -0.010129 0.252419 -12.198921 0.024529 0.179163 -7.983225 -0.000000 0.000003 0.000001 3.658808 4.545598 3.202839 5.907639 9.623002 72.679387 1.534281 19.193801 -1.924461 -9.943180 -2.055648 -10.413984 -0.477329 -8.971458 -6.078716 7.447675 -11.616567 1.292644 1.168304 -8.918883 -5.205633 0.000001 -0.000003 -0.000003 2.255261 -3.474012 7.825705 0.017132 -0.256474 18.282325 0.046820 -0.182292 14.139381 -0.000002 -0.000001 0.000003 -2.079482 -5.307349 13.104932 0.126813 -0.655997 26.618734 0.040772 -0.051844 11.331022 0.000001 0.000000 -0.000004 -5.149460 -9.520553 10.299523 -0.030091 -0.340608 32.629542 0.109073 -0.701789 15.155654 0.000000 0.000002 -0.000005 -6.715734 -10.516380 22.873390 0.060958 -0.251890 34.030950 0.030783 -0.138239 14.648454 -0.000000 -0.000004 0.000002 -8.717002 19.159277 10.200118 23.620818 -6.815033 -1.559490 -15.108472 2.542094 -2.094736 0.092319 -0.123271 0.249447 0.000000 -0.000001 -0.000000 -8.164029 -5.732233 -11.462456 16.525083 3.436701 0.354205 -4.386645 1.590437 12.831374 -2.114034 4.445578 -1.050631 0.000000 -0.000000 0.000000 
15.779484 91.630371 3.118655 -2.246848 -5.354526 -2.781082 8.962999 0.943623 -0.701606 -0.125393 -4.365533 2.582692 -5.416835 2.282531 -0.067822 9.671631 -11.249011 3.226346 -4.377030 -12.527070 6.397294 -0.000000 -0.000001 -0.000000 4.357205 -11.032478 -1.098877 5.519089 -8.954017 -74.870792 -5.390439 -13.079073 -0.719295 -8.393264 3.841611 3.365461 -3.855621 8.279905 12.293002 7.462069 11.647430 -1.287613 1.241537 9.128187 5.245921 -0.000001 -0.000003 -0.000002 -8.449759 8.433913 -9.824933 0.022433 0.254856 -23.983753 0.008486 0.140690 -4.725190 -0.000000 -0.000000 -0.000001 -6.553029 4.797983 0.617254 -0.082323 0.331959 -24.017600 0.002774 0.710414 -6.624414 -0.000000 -0.000000 0.000005 -3.034772 -1.472531 -3.980837 0.042110 0.665307 -19.472198 0.029044 0.057056 -4.204315 0.000002 -0.000001 0.000004 1.233061 -6.498723 1.372304 -0.011497 0.251929 -11.673283 0.022557 0.178776 -7.454303 0.000000 0.000001 0.000001 3.667301 4.668135 2.984868 5.987791 8.771989 73.053511 1.813656 18.661726 -1.651266 -9.486375 -2.144575 -10.526443 -0.473811 -8.983119 -6.080867 7.435714 -11.591179 1.296656 1.176141 -8.935467 -5.209721 0.000001 -0.000001 -0.000001 2.063954 -3.036425 7.018021 0.016609 -0.256010 17.744155 0.044817 -0.182107 13.611467 -0.000001 -0.000001 0.000001 -2.211186 -4.785923 12.584980 0.124848 -0.654626 26.255630 0.039323 -0.050075 10.977392 0.000000 0.000000 -0.000004 -5.321284 -8.902741 9.954176 -0.030262 -0.338862 32.366067 0.106751 -0.700736 14.902626 -0.000000 -0.000000 -0.000003 -6.904169 -9.825854 22.702504 0.060465 -0.251266 33.871796 0.030377 -0.137573 14.503056 0.000002 -0.000002 0.000002 -7.923510 19.887004 9.854347 23.428327 -6.238050 -1.422422 -15.513130 2.257130 -1.675680 0.108365 0.030348 0.218689 -0.000000 0.000001 0.000000 -8.075577 -5.800611 -11.794217 15.845279 2.483724 0.722407 -3.135689 1.862267 13.146874 -2.314667 5.045102 -1.094223 -0.000000 0.000000 0.000000 
16.389414 91.837296 3.216969 -2.586887 -6.264403 -3.008590 9.408618 0.932712 -1.072770 -0.322421 -4.551852 2.699263 -5.526407 2.313872 0.023061 9.881593 -10.776609 3.510543 -4.363945 -11.953879 6.279746 -0.000000 0.000003 -0.000001 4.378762 -11.012208 -0.950077 6.060086 -9.177737 -74.787477 -4.927609 -13.357399 -0.538931 -9.049470 4.112999 3.482428 -3.862782 8.260878 12.287813 7.466218 11.656293 -1.286204 1.251089 9.154192 5.251073 -0.000001 0.000001 -0.000002 -8.617139 7.853186 -9.034751 0.019812 0.254979 -23.403356 0.007450 0.140849 -4.159624 0.000001 0.000001 0.000001 -6.646192 4.195258 1.337409 -0.085393 0.331193 -23.485416 -0.003979 0.710459 -6.100730 0.000000 -0.000001 0.000003 -3.032442 -2.059717 -3.295828 0.036276 0.664295 -18.982643 0.027990 0.057160 -3.717742 0.000001 -0.000000 0.000004 1.274231 -7.133470 2.170272 -0.012650 0.251455 -11.134089 0.020502 0.178360 -6.911837 0.000002 0.000000 -0.000004 3.658923 4.734314 3.185369 6.296756 8.230220 73.197286 1.705497 18.375944 -1.487950 -9.394571 -2.209621 -10.600030 -0.473464 -8.982329 -6.080910 7.435399 -11.590443 1.296751 1.180412 -8.938042 -5.211656 0.000003 -0.000003 0.000002 2.077576 -2.825523 7.318486 0.016805 -0.256185 17.952539 0.045608 -0.182177 13.815640 -0.000001 -0.000001 -0.000001 -2.205850 -4.682328 12.807306 0.125677 -0.655170 26.403570 0.039893 -0.050805 11.123012 -0.000000 0.000000 -0.000009 -5.307308 -8.862115 10.131875 -0.030197 -0.339631 32.482836 0.107825 -0.701221 15.018312 -0.000000 -0.000000 0.000000 -6.883308 -9.839198 22.828784 0.060711 -0.251590 33.956743 0.030620 -0.137960 14.586991 0.000001 -0.000001 0.000007 -6.836747 20.488300 9.372014 22.931911 -5.496695 -1.271329 -15.741740 2.033484 -1.447094 0.092238 0.182462 0.189094 0.000000 0.000000 0.000000 -7.682663 -6.359571 -12.197301 14.898237 1.027224 1.265117 -2.011356 2.139717 13.150154 -2.270588 4.262562 -1.032063 0.000000 -0.000001 0.000000 
16.973125 92.102043 3.316029 -2.811934 -7.202892 -3.216850 9.652387 0.934645 -1.406232 -0.470312 -4.728359 2.814930 -5.587363 2.355975 0.111950 9.931124 -10.217586 3.515326 -4.338059 -11.347307 6.153525 -0.000000 -0.000001 -0.000000 4.399565 -11.001235 -0.820921 6.617618 -9.351605 -74.665490 -4.399575 -13.731687 -0.253774 -9.714415 4.363908 3.518706 -3.869207 8.241743 12.282854 7.470355 11.665045 -1.284874 1.260652 9.179900 5.256223 -0.000001 -0.000002 0.000003 -8.768042 7.274361 -8.253678 0.017264 0.254971 -22.827696 0.006473 0.141000 -3.598828 -0.000000 0.000001 0.000001 -6.724089 3.596077 2.049620 -0.088417 0.330500 -22.957516 -0.010614 0.709819 -5.581465 -0.000000 0.000000 0.000002 -3.016420 -2.642078 -2.616197 0.030418 0.663373 -18.497228 0.027038 0.057466 -3.235113 0.000002 -0.000001 0.000004 1.332780 -7.762887 2.962378 -0.013837 0.250959 -10.599517 0.018499 0.177919 -6.373859 -0.000001 -0.000000 -0.000001 3.650451 4.853723 3.318284 6.596123 7.761631 73.433775 1.615875 18.145583 -1.390798 -9.377248 -2.457577 -10.652941 -0.481639 -8.946959 -6.075162 7.460202 -11.643190 1.288560 1.182411 -8.939003 -5.212629 0.000001 0.000000 0.000002 2.155343 -2.785857 7.875961 0.017164 -0.256520 18.332390 0.047037 -0.182285 14.188089 -0.000001 -0.000001 -0.000001 -2.178675 -4.568042 13.278305 0.127353 -0.656371 26.719499 0.041194 -0.052386 11.434368 0.000000 0.000001 -0.000006 -5.290957 -8.632025 10.609129 -0.029986 -0.341681 32.790440 0.110659 -0.702480 15.323673 -0.000000 0.000001 -0.000003 -6.905752 -9.463883 23.308094 0.061629 -0.252755 34.251514 0.031435 -0.139295 14.884818 -0.000001 -0.000001 0.000004 -5.756414 20.924291 8.812997 22.185742 -4.634001 -1.103452 -15.774385 1.858687 -1.308031 0.062452 0.334432 0.154215 -0.000000 -0.000000 0.000000 -7.079160 -7.497153 -12.616854 13.568718 -0.999381 2.065007 -1.090488 2.367811 12.830361 -1.793280 2.551495 -0.960689 0.000000 0.000000 -0.000000 
